<svg xmlns="http://www.w3.org/2000/svg" width="11" height="27" viewBox="0 0 11 27">
  <g id="Векторный_смарт-объект" data-name="Векторный смарт-объект" transform="translate(-1065 -5285)">
    <g id="Векторный_смарт-объект-2" data-name="Векторный смарт-объект" transform="translate(1037.092 5234.655)">
      <path id="Контур_1" data-name="Контур 1" d="M30.4,77.345h4.8V63.73h3.349l.357-4.558H35.2v-2.6c0-1.075.191-1.5,1.108-1.5h2.6v-4.73H35.585c-3.571,0-5.182,1.781-5.182,5.192v3.635h-2.5v4.615h2.5Z"/>
    </g>
    <path id="Color_Overlay" data-name="Color Overlay" d="M1067.5,5312v-13.558H1065v-4.616h2.5v-3.634c0-3.412,1.61-5.193,5.181-5.193H1076v4.73h-2.6c-.917,0-1.108.425-1.108,1.5v2.6h3.7l-.357,4.558H1072.3V5312Z"/>
  </g>
</svg>
