<svg xmlns="http://www.w3.org/2000/svg" width="31" height="25" viewBox="0 0 31 25">
  <g id="Векторный_смарт-объект" data-name="Векторный смарт-объект" transform="translate(-106.601 -71.474)">
    <path id="Контур_3" data-name="Контур 3" d="M106.6,93.637a18.1,18.1,0,0,0,9.749,2.836A17.909,17.909,0,0,0,134.428,77.7a12.87,12.87,0,0,0,3.173-3.267,12.779,12.779,0,0,1-3.653.993,6.332,6.332,0,0,0,2.8-3.491,12.782,12.782,0,0,1-4.038,1.531,6.365,6.365,0,0,0-10.838,5.757,18.1,18.1,0,0,1-13.108-6.595,6.288,6.288,0,0,0,1.968,8.425,6.375,6.375,0,0,1-2.882-.789,6.33,6.33,0,0,0,5.1,6.268,6.413,6.413,0,0,1-2.871.108,6.358,6.358,0,0,0,5.94,4.382A12.856,12.856,0,0,1,106.6,93.637Z"/>
  </g>
</svg>
