<svg xmlns="http://www.w3.org/2000/svg" width="25" height="28" viewBox="0 0 25 28">
  <g id="Векторный_смарт-объект" data-name="Векторный смарт-объект" transform="translate(-88.005 -172.427)">
    <path id="Контур_4" data-name="Контур 4" d="M104.156,183.347a2.436,2.436,0,0,0,1.766-.995v.879h1.526v-7.97h-1.526v6.049c-.187.227-.6.6-.9.6-.328,0-.407-.216-.407-.537v-6.111h-1.527v6.663C103.089,182.711,103.338,183.347,104.156,183.347Z"/>
    <path id="Контур_5" data-name="Контур 5" d="M97.361,181.244A1.947,1.947,0,0,0,99.6,183.38a2.062,2.062,0,0,0,2.2-2.136v-3.907a2.114,2.114,0,0,0-2.2-2.142,2.072,2.072,0,0,0-2.238,2.142Zm1.572-3.776c0-.436.208-.76.636-.76.468,0,.669.314.669.76v3.708c0,.434-.228.755-.639.755a.68.68,0,0,1-.666-.755Z"/>
    <path id="Контур_6" data-name="Контур 6" d="M93.718,183.232h1.72v-4.383l2-6.422H95.692l-1.1,4.319L93.4,172.427H91.672l2.045,6.422Z"/>
    <path id="Контур_7" data-name="Контур 7" d="M109.5,185.045h-18a3.451,3.451,0,0,0-3.5,3.4v8.584a3.449,3.449,0,0,0,3.5,3.4h18a3.449,3.449,0,0,0,3.5-3.4v-8.584A3.451,3.451,0,0,0,109.5,185.045ZM93.9,197.883H92.267v-8.8h-1.7v-1.495H95.6v1.495H93.9Zm5.825,0H98.275v-.838a3.191,3.191,0,0,1-.836.706c-.784.436-1.86.427-1.86-1.114v-6.344h1.455v5.818c0,.306.077.512.387.512a1.514,1.514,0,0,0,.855-.569v-5.762h1.455Zm5.6-1.573c0,.938-.362,1.668-1.329,1.668a1.682,1.682,0,0,1-1.382-.679v.583h-1.468V187.592h1.468v3.313a1.758,1.758,0,0,1,1.293-.709c1.065,0,1.418.874,1.418,1.9Zm5.376-2.045h-2.782V195.7c0,.57.049,1.062.635,1.062.614,0,.65-.4.65-1.062v-.527h1.5v.57c0,1.463-.648,2.349-2.18,2.349a2.063,2.063,0,0,1-2.1-2.349v-3.407a2.116,2.116,0,0,1,2.208-2.233c1.4,0,2.07.86,2.07,2.233Z"/>
    <path id="Контур_8" data-name="Контур 8" d="M108.571,191.429c-.538,0-.65.368-.65.89v.768h1.285v-.768C109.206,191.8,109.093,191.429,108.571,191.429Z"/>
    <path id="Контур_9" data-name="Контур 9" d="M102.917,191.476a1.065,1.065,0,0,0-.3.232v4.73a1.252,1.252,0,0,0,.345.267.629.629,0,0,0,.743-.077.844.844,0,0,0,.127-.523v-3.921a.938.938,0,0,0-.156-.583A.617.617,0,0,0,102.917,191.476Z"/>
  </g>
</svg>
